<?xml version="1.0" standalone="no"?>
<!DOCTYPE svg PUBLIC "-//W3C//DTD SVG 20010904//EN"
 "http://www.w3.org/TR/2001/REC-SVG-20010904/DTD/svg10.dtd">
<svg version="1.0" xmlns="http://www.w3.org/2000/svg"
 width="500.000000pt" height="500.000000pt" viewBox="0 0 500.000000 500.000000"
 preserveAspectRatio="xMidYMid meet">
<metadata>
Created by potrace 1.14, written by Peter Selinger 2001-2017
</metadata>
<g transform="translate(0.000000,500.000000) scale(0.100000,-0.100000)"
fill="#000000" stroke="none">
<path d="M2015 4019 c-47 -8 -94 -16 -155 -24 -107 -14 -115 -33 -115 -270 0
-163 8 -348 20 -495 10 -116 15 -177 20 -245 3 -38 15 -144 26 -235 23 -192
34 -264 74 -495 2 -16 7 -41 10 -55 3 -14 8 -38 10 -55 28 -161 112 -498 161
-644 52 -156 109 -226 229 -283 65 -30 203 -56 245 -45 72 18 153 162 200 355
42 174 119 568 144 737 4 23 8 50 10 60 2 11 9 56 15 100 7 44 16 103 21 130
5 28 12 68 15 90 3 22 12 81 20 130 30 191 45 293 51 360 8 98 32 207 49 224
11 11 19 8 52 -27 159 -166 205 -210 298 -285 115 -92 207 -142 382 -206 127
-46 143 -48 166 -23 41 45 22 68 -138 162 -161 96 -262 183 -353 305 -57 77
-92 148 -151 304 -93 244 -113 289 -143 318 -26 25 -36 28 -96 28 -64 0 -142
-8 -207 -20 -70 -14 -98 -55 -110 -160 -3 -33 -12 -100 -20 -150 -8 -49 -16
-112 -20 -140 -3 -27 -10 -75 -15 -105 -5 -30 -12 -82 -16 -115 -3 -33 -8 -62
-9 -65 -2 -3 -6 -37 -10 -75 -4 -39 -9 -72 -10 -75 -2 -3 -6 -29 -10 -59 -4
-30 -9 -63 -11 -75 -2 -12 -6 -43 -9 -71 -3 -27 -8 -61 -10 -75 -6 -33 -12
-75 -20 -130 -3 -25 -10 -70 -15 -100 -5 -30 -12 -73 -15 -95 -3 -22 -11 -67
-17 -100 -5 -33 -12 -71 -14 -85 -5 -27 -11 -62 -20 -100 -3 -14 -7 -36 -10
-50 -8 -39 -66 -265 -70 -269 -4 -4 -21 64 -28 109 -2 19 -10 73 -16 120 -10
83 -15 116 -25 183 -3 17 -14 104 -25 192 -11 88 -23 175 -25 193 -11 75 -15
105 -35 248 -6 44 -12 89 -14 100 -2 10 -7 48 -11 84 -4 36 -9 72 -10 80 -2 8
-6 38 -9 65 -4 28 -9 61 -11 75 -5 32 -23 162 -30 220 -4 25 -8 56 -10 70 -2
14 -11 81 -20 150 -9 69 -18 132 -20 140 -2 8 -7 40 -10 70 -7 57 -27 99 -48
101 -6 0 -19 2 -27 3 -8 1 -33 -1 -55 -5z"/>
</g>
</svg>
