<svg width="156" height="31" viewBox="0 0 156 31" fill="none" xmlns="http://www.w3.org/2000/svg">
<path d="M23.5965 27.2476C22.6163 27.2476 21.6944 26.8658 21.0019 26.173C20.3081 25.4809 19.9268 24.5597 19.9268 23.5791C19.9268 22.6 20.3082 21.6789 21 20.9872C21.6933 20.294 22.6152 19.9121 23.5951 19.9121C24.5748 19.9121 25.496 20.2928 26.1881 20.9856C27.6185 22.4164 27.6185 24.7444 26.1881 26.1748C25.496 26.8669 24.5755 27.2476 23.5965 27.2476Z" fill="black"/>
<path d="M3.66974 7.68852C2.68955 7.68852 1.76792 7.30666 1.07465 6.6134C0.381855 5.9213 0 5.00013 0 4.01995C0 3.04023 0.380921 2.11976 1.07302 1.42836C1.76675 0.734395 2.68886 0.352539 3.66927 0.352539C4.64829 0.352539 5.56946 0.733693 6.26109 1.42603C6.95482 2.11929 7.33668 3.04093 7.33668 4.02065C7.33668 5.00083 6.95506 5.92199 6.26179 6.61526C5.56946 7.30713 4.64876 7.68852 3.66974 7.68852Z" fill="black"/>
<path d="M23.4332 7.58106C22.4523 7.58106 21.5314 7.19921 20.8386 6.50641C19.4089 5.07602 19.4077 2.74919 20.8365 1.31997C21.5298 0.626706 22.4514 0.244385 23.4323 0.244385C24.4118 0.244385 25.3329 0.626238 26.0257 1.3188C27.4554 2.74849 27.4554 5.07649 26.0257 6.50851C25.3334 7.19968 24.4122 7.58106 23.4332 7.58106Z" fill="black"/>
<path d="M3.76474 27.2475C2.78456 27.2475 1.86293 26.8657 1.16896 26.1729C0.47616 25.4803 0.0950043 24.5596 0.0957041 23.5794C0.0957041 22.5997 0.478258 21.6788 1.17129 20.986C1.31638 20.84 1.4799 20.7063 1.68797 20.5659C1.75049 20.5223 1.80834 20.4875 1.86806 20.4511C2.00382 20.3732 2.13911 20.3021 2.26531 20.2442C2.33412 20.2134 2.40457 20.1817 2.47898 20.1535C2.61078 20.1045 2.75797 20.0609 2.92615 20.021C2.95974 20.0119 2.98937 20.0039 3.01946 19.9953C3.03835 19.9902 3.05655 19.9839 3.07567 19.9794L3.89234 19.9239C3.99591 19.9284 4.10671 19.9414 4.22498 19.9568L4.27163 19.9631C4.29939 19.9664 4.33694 19.9694 4.3745 19.9715L4.40739 19.9738L4.44471 19.9813H4.47714C4.53685 19.9836 4.59657 19.9846 4.65558 19.9846C6.06311 19.9846 7.45244 19.3851 8.46785 18.3408C9.47882 17.3009 10.0356 15.902 9.99574 14.5017L9.99457 14.4601L9.98688 14.4167C9.97918 14.3776 9.97708 14.3379 9.97428 14.2985C9.97078 14.2514 9.96682 14.2047 9.96098 14.1576L9.95189 14.0752C9.94396 14.0048 9.93603 13.936 9.93136 13.8655L9.99388 13.0463C9.99784 13.0258 10.0053 13.0071 10.0109 12.9871L10.0256 12.9364C10.0634 12.7813 10.1035 12.6255 10.1621 12.4748C10.1922 12.3892 10.2211 12.326 10.2523 12.2611C10.3176 12.1179 10.3853 11.9878 10.4648 11.8543C10.4994 11.7965 10.533 11.7377 10.5728 11.681C10.721 11.465 10.8558 11.2999 10.9955 11.1599C11.6883 10.4671 12.6093 10.0859 13.5906 10.0859C14.5701 10.0859 15.4924 10.4666 16.1857 11.1587C17.6142 12.5891 17.6133 14.9166 16.1824 16.3473C16.0378 16.4923 15.8738 16.6253 15.6653 16.7678C15.6044 16.8094 15.5465 16.8439 15.4885 16.8782C15.3567 16.957 15.2237 17.027 15.0914 17.0879C15.0198 17.1201 14.9482 17.1532 14.8789 17.1786C14.7385 17.2309 14.5897 17.2752 14.4334 17.3104L14.3455 17.3349C14.3254 17.3405 14.306 17.3468 14.2862 17.3519L13.4616 17.4105C13.365 17.4065 13.2638 17.3935 13.1565 17.3797L13.0832 17.3706C13.0588 17.3666 13.0203 17.3638 12.9815 17.3615L12.9526 17.3587L12.9106 17.3505H12.8777C12.8176 17.3484 12.7583 17.3477 12.6988 17.3477C11.2913 17.3477 9.90244 17.9465 8.88773 18.9911C7.87629 20.0315 7.31925 21.4318 7.35914 22.8318L7.3603 22.8733L7.368 22.9149C7.3757 22.9547 7.37733 22.9939 7.3806 23.0336C7.38386 23.0809 7.38806 23.1274 7.39366 23.174C7.39529 23.2018 7.40089 23.2524 7.40719 23.3018C7.41325 23.3581 7.42072 23.4126 7.42072 23.4689V23.4889L7.36147 24.2741C7.35774 24.2907 7.33138 24.3812 7.32392 24.4094C7.28426 24.5787 7.23947 24.7287 7.18932 24.8636C7.16203 24.9387 7.13427 25.0033 7.10184 25.0709C7.03816 25.2102 6.96888 25.3439 6.89051 25.4796C6.85598 25.5351 6.81516 25.6005 6.77364 25.6632C6.63718 25.861 6.50188 26.0273 6.35703 26.1729C5.66586 26.865 4.74492 27.2468 3.76521 27.2468H3.76474V27.2475Z" fill="black"/>
<path d="M13.6712 27.2474C12.6903 27.2474 11.7687 26.8655 11.0754 26.1723C10.3828 25.4797 10.0014 24.559 10.001 23.5788C10.0005 22.5998 10.3817 21.6791 11.0738 20.9882C11.2151 20.8461 11.3756 20.7155 11.5949 20.5639C11.6492 20.527 11.7078 20.4911 11.7691 20.4559C11.9037 20.3751 12.0334 20.307 12.168 20.245C12.2396 20.2126 12.3096 20.1804 12.3808 20.1535C12.517 20.1034 12.6653 20.0598 12.8228 20.025C12.8228 20.025 12.9518 19.9875 12.9684 19.9835L13.7978 19.9228C13.8958 19.9273 14.0013 19.9415 14.1118 19.9557L14.1732 19.9639C14.214 19.9679 14.248 19.9711 14.2823 19.9718C14.2959 19.973 14.3096 19.973 14.3227 19.9742L14.3488 19.9777L14.3833 19.9812C14.444 19.9828 14.5056 19.9844 14.5662 19.9844C15.971 19.984 17.3582 19.3854 18.3713 18.3422C19.3822 17.303 19.939 15.9023 19.8991 14.5022L19.894 14.3312L19.8789 14.3123C19.8782 14.3067 19.8782 14.3 19.8777 14.2937C19.8756 14.2538 19.8733 14.2137 19.8693 14.1733L19.8558 14.0557C19.8483 13.9911 19.8399 13.9274 19.8376 13.8626L19.8945 13.0688C19.8989 13.0494 19.9276 12.9512 19.9341 12.9216C19.9808 12.732 20.0216 12.5932 20.0683 12.4698C20.0944 12.3961 20.1263 12.3284 20.1585 12.2573C20.2171 12.1294 20.2859 11.9993 20.3699 11.856L20.3857 11.8299C20.414 11.7816 20.4413 11.734 20.4748 11.6874C20.6251 11.4686 20.7585 11.3039 20.8994 11.163C21.5929 10.4697 22.515 10.0879 23.4952 10.0879C24.4747 10.0879 25.3954 10.469 26.0882 11.1614C27.5176 12.5911 27.5176 14.9198 26.0882 16.3511C25.9494 16.4892 25.784 16.6228 25.5687 16.7714C25.5272 16.7999 25.4875 16.8237 25.4478 16.8475L25.3837 16.8874C25.261 16.9601 25.1273 17.0301 24.9972 17.0898C24.9237 17.1227 24.8546 17.1544 24.7816 17.1817C24.6533 17.2303 24.5117 17.2711 24.3333 17.3138C24.2976 17.3222 24.2687 17.3313 24.24 17.3399C24.2199 17.345 24.2013 17.3511 24.1819 17.3558L23.3666 17.412C23.2472 17.4068 23.1182 17.3893 22.9932 17.3728C22.9505 17.3676 22.9176 17.366 22.8852 17.3642C22.8728 17.3637 22.8605 17.3637 22.8479 17.3618L22.7783 17.3546C22.7177 17.3523 22.6575 17.3511 22.5973 17.3511C21.1914 17.3511 19.8044 17.9501 18.79 18.9933C17.7797 20.0336 17.2234 21.4335 17.2644 22.8347L17.2656 22.8758L17.2735 22.9161C17.2814 22.9576 17.2831 23.0001 17.2861 23.0416C17.2889 23.0848 17.2922 23.127 17.2968 23.1683C17.2996 23.203 17.3048 23.2474 17.3094 23.2903C17.3169 23.3523 17.3244 23.4148 17.326 23.4766L17.2658 24.2817C17.2614 24.2994 17.2299 24.4078 17.2299 24.4078C17.1907 24.5784 17.1471 24.7277 17.0953 24.8681C17.0708 24.9341 17.0419 24.9978 17.0122 25.0643L17.002 25.0876C16.9413 25.2187 16.873 25.3484 16.7967 25.475C16.7594 25.5376 16.7223 25.5989 16.6831 25.657C16.5394 25.8655 16.4039 26.0314 16.2593 26.1774C15.5695 26.8667 14.6502 27.2474 13.6712 27.2474Z" fill="black"/>
<path d="M3.76642 17.3435C2.78624 17.3435 1.86484 16.9624 1.17227 16.27C0.479238 15.5763 0.0973799 14.6551 0.0966801 13.675C0.0962136 12.6957 0.47667 11.7757 1.16947 11.0836C1.31153 10.9416 1.47692 10.8074 1.68966 10.6607C1.74517 10.6234 1.80769 10.5851 1.8702 10.5476C1.9971 10.4727 2.12656 10.4039 2.26466 10.3402C2.33557 10.3078 2.40601 10.276 2.48089 10.2481C2.61572 10.1986 2.76454 10.1548 2.91967 10.1202L3.01297 10.0941C3.03023 10.089 3.04679 10.0834 3.06382 10.0794L3.89402 10.0197C4.00179 10.0241 4.11842 10.0395 4.24065 10.0561L4.26631 10.0596C4.309 10.064 4.34189 10.0659 4.37548 10.0675C4.38737 10.068 4.39927 10.068 4.41117 10.0698L4.44686 10.0761L4.48045 10.0773C4.54203 10.0789 4.60268 10.0801 4.66333 10.0801C6.06759 10.0801 7.45459 9.48178 8.46836 8.43791C9.47887 7.39755 10.0352 5.99725 9.99462 4.59672L9.99345 4.55636L9.98552 4.51648C9.97689 4.47216 9.97596 4.42714 9.97293 4.38165C9.97083 4.34479 9.9685 4.3077 9.96453 4.26922L9.95193 4.15608C9.94354 4.0889 9.93491 4.02079 9.93327 3.95267L9.98832 3.1822L9.99345 3.16447V3.14907C9.99789 3.13134 10.028 3.02917 10.028 3.02917C10.0746 2.83206 10.1162 2.68954 10.1628 2.56381C10.1889 2.49453 10.2214 2.42525 10.2542 2.35363C10.314 2.22184 10.3839 2.08841 10.4647 1.95242L10.4772 1.93142C10.509 1.87847 10.5405 1.82576 10.5762 1.7728C10.7217 1.56193 10.8551 1.39725 10.9949 1.25799C11.6884 0.56472 12.6098 0.182861 13.5906 0.182861C14.5708 0.182861 15.492 0.564252 16.1853 1.25682C17.615 2.68721 17.6138 5.0152 16.1836 6.44489C16.042 6.58695 15.8734 6.72388 15.6669 6.8636C15.6107 6.90349 15.5622 6.93171 15.5123 6.96133L15.485 6.9772C15.3504 7.05745 15.2179 7.12719 15.0929 7.18457C15.0189 7.21863 14.9497 7.24988 14.8792 7.27601C14.7416 7.32733 14.5956 7.37049 14.4306 7.40851C14.3961 7.41691 14.3649 7.42601 14.3336 7.43464C14.3147 7.43977 14.2956 7.44583 14.2762 7.4505L13.4631 7.50741C13.3602 7.50228 13.2501 7.48852 13.1344 7.47382L13.0845 7.46752C13.0469 7.46286 13.0121 7.46122 12.9788 7.45889C12.9653 7.45819 12.9515 7.45819 12.938 7.45609L12.9107 7.4526L12.875 7.4498C12.8143 7.44747 12.7539 7.4463 12.693 7.4463C11.2883 7.4463 9.90108 8.04463 8.88754 9.08756C7.87657 10.1279 7.31976 11.5287 7.35965 12.9299L7.36082 12.9707L7.36805 13.0111C7.37668 13.0519 7.37831 13.0946 7.38134 13.1361C7.38414 13.1793 7.38764 13.2213 7.39207 13.2644C7.39557 13.2985 7.40047 13.3421 7.40583 13.3855C7.4126 13.4468 7.42053 13.507 7.4217 13.5679L7.36315 14.3675C7.35872 14.3878 7.35195 14.409 7.34565 14.4307L7.32513 14.5024C7.28431 14.6813 7.24115 14.8303 7.19216 14.9626C7.16604 15.0319 7.13245 15.1035 7.09886 15.177C7.03868 15.3088 6.97056 15.4389 6.89079 15.5719C6.853 15.6356 6.81754 15.6953 6.77952 15.7515C6.62906 15.9696 6.49936 16.1299 6.35777 16.2703C5.66474 16.9628 4.74474 17.3435 3.76642 17.3435Z" fill="black"/>
<path d="M146.297 23.7527L144.713 17.1505C144.633 16.8133 144.553 16.4317 144.473 16.0057C144.393 15.5709 144.314 15.1361 144.234 14.7013C144.163 14.2664 144.101 13.8671 144.047 13.5033C143.994 13.1394 143.954 12.8555 143.928 12.6514H143.848C143.821 12.8555 143.777 13.1439 143.715 13.5166C143.652 13.8804 143.581 14.2842 143.502 14.7279C143.422 15.1716 143.333 15.6241 143.235 16.0856C143.147 16.5382 143.058 16.9597 142.969 17.3501L141.438 23.7527H135.968L131.854 8.67139H136.979L138.204 14.4617C138.293 14.8876 138.381 15.3979 138.47 15.9924C138.568 16.5781 138.652 17.1771 138.723 17.7894C138.803 18.3928 138.856 18.9341 138.883 19.4133H138.963C138.98 19.0495 139.02 18.6324 139.082 18.1621C139.153 17.6829 139.229 17.2082 139.309 16.7378C139.397 16.2675 139.477 15.8549 139.548 15.4999C139.619 15.1361 139.668 14.8876 139.695 14.7545L141.092 8.67139H146.843L148.12 14.8344C148.2 15.1804 148.289 15.6241 148.387 16.1655C148.493 16.6979 148.591 17.257 148.68 17.8426C148.777 18.4194 148.848 18.943 148.893 19.4133H148.972C149.008 18.9253 149.061 18.3706 149.132 17.7495C149.203 17.1283 149.283 16.5249 149.372 15.9392C149.469 15.3446 149.563 14.8521 149.651 14.4617L150.982 8.67139H156.001L151.861 23.7527H146.297Z" fill="black"/>
<path d="M130.337 16.1789C130.337 17.439 130.164 18.5571 129.818 19.5332C129.472 20.5094 128.97 21.3302 128.314 21.9958C127.657 22.6613 126.863 23.1671 125.931 23.5132C124.999 23.8504 123.948 24.019 122.776 24.019C121.685 24.019 120.682 23.8504 119.768 23.5132C118.863 23.1671 118.073 22.6613 117.399 21.9958C116.724 21.3302 116.201 20.5094 115.828 19.5332C115.464 18.5571 115.282 17.439 115.282 16.1789C115.282 14.5106 115.584 13.0996 116.187 11.946C116.8 10.7924 117.669 9.91385 118.796 9.31042C119.932 8.70699 121.285 8.40527 122.856 8.40527C124.303 8.40527 125.589 8.70699 126.716 9.31042C127.843 9.91385 128.726 10.7924 129.365 11.946C130.013 13.0996 130.337 14.5106 130.337 16.1789ZM120.567 16.1789C120.567 17.0397 120.642 17.7673 120.793 18.3619C120.944 18.9476 121.183 19.3957 121.512 19.7063C121.849 20.008 122.288 20.1589 122.83 20.1589C123.371 20.1589 123.801 20.008 124.121 19.7063C124.44 19.3957 124.671 18.9476 124.813 18.3619C124.964 17.7673 125.039 17.0397 125.039 16.1789C125.039 15.3181 124.964 14.5993 124.813 14.0225C124.671 13.4457 124.436 13.0109 124.107 12.718C123.788 12.4252 123.353 12.2788 122.803 12.2788C122.013 12.2788 121.441 12.6071 121.086 13.2638C120.74 13.9204 120.567 14.8921 120.567 16.1789Z" fill="black"/>
<path d="M112.327 23.7526H107.122V3.04077H112.327V23.7526Z" fill="black"/>
<path d="M97.9114 23.7529H92.7334V4.29224H104.234V8.51181H97.9114V12.2256H103.742V16.4451H97.9114V23.7529Z" fill="black"/>
<path d="M88.7938 8.67136V23.7527H83.5892V8.67136H88.7938ZM86.2114 2.60156C86.9568 2.60156 87.6046 2.75686 88.1548 3.06745C88.7139 3.37804 88.9934 3.99478 88.9934 4.91767C88.9934 5.81394 88.7139 6.42181 88.1548 6.74127C87.6046 7.05186 86.9568 7.20716 86.2114 7.20716C85.4483 7.20716 84.796 7.05186 84.2547 6.74127C83.7223 6.42181 83.4561 5.81394 83.4561 4.91767C83.4561 3.99478 83.7223 3.37804 84.2547 3.06745C84.796 2.75686 85.4483 2.60156 86.2114 2.60156Z" fill="black"/>
<path d="M72.1811 30.3018C70.0425 30.3018 68.3919 29.9424 67.2294 29.2236C66.0758 28.5137 65.499 27.4888 65.499 26.1488C65.499 25.2525 65.7786 24.5115 66.3376 23.9259C66.8967 23.3402 67.7353 22.9187 68.8534 22.6613C68.3919 22.4661 67.9882 22.1511 67.6421 21.7162C67.3049 21.2814 67.1363 20.851 67.1363 20.4251C67.1363 19.9548 67.2649 19.5421 67.5223 19.1872C67.7796 18.8233 68.3165 18.3929 69.1329 17.896C68.352 17.5499 67.7353 17.0086 67.2827 16.2721C66.839 15.5355 66.6171 14.6392 66.6171 13.5832C66.6171 12.4917 66.8656 11.56 67.3626 10.7879C67.8684 10.0159 68.6005 9.42578 69.5589 9.01758C70.5261 8.60937 71.7019 8.40527 73.0863 8.40527C73.2726 8.40527 73.5566 8.42302 73.9382 8.45852C74.3198 8.48514 74.7058 8.52064 75.0962 8.56501C75.4867 8.6005 75.7884 8.636 76.0014 8.67149H81.2592V11.1873L79.196 11.946C79.338 12.2033 79.4445 12.4829 79.5155 12.7846C79.5865 13.0863 79.622 13.4058 79.622 13.743C79.622 15.3669 79.0496 16.627 77.9048 17.5233C76.769 18.4196 75.0696 18.8677 72.8067 18.8677C72.2477 18.8677 71.804 18.8322 71.4756 18.7612C71.4135 18.8766 71.3647 18.9919 71.3292 19.1073C71.3026 19.2138 71.2893 19.3158 71.2893 19.4134C71.2893 19.6175 71.4091 19.7817 71.6487 19.9059C71.8972 20.0213 72.1944 20.1012 72.5405 20.1455C72.8955 20.1899 73.2327 20.2121 73.5522 20.2121H76.0546C77.7495 20.2121 79.0185 20.5671 79.8616 21.277C80.7046 21.9869 81.1261 23.0562 81.1261 24.4849C81.1261 26.3218 80.3407 27.7505 78.7701 28.771C77.2082 29.7916 75.0119 30.3018 72.1811 30.3018ZM72.434 27.0539C73.0641 27.0539 73.6986 26.9963 74.3375 26.8809C74.9764 26.7744 75.5133 26.5969 75.9481 26.3485C76.383 26.1 76.6004 25.7716 76.6004 25.3634C76.6004 25.0529 76.4717 24.8177 76.2143 24.658C75.957 24.5071 75.6242 24.4051 75.216 24.3518C74.8078 24.2986 74.3774 24.2719 73.9249 24.2719H71.9016C71.5289 24.2719 71.1872 24.3296 70.8767 24.445C70.5749 24.5692 70.3353 24.7334 70.1579 24.9375C69.9804 25.1416 69.8916 25.3723 69.8916 25.6297C69.8916 26.0556 70.1224 26.3973 70.5838 26.6546C71.0453 26.9208 71.662 27.0539 72.434 27.0539ZM73.1395 15.926C73.6365 15.926 74.018 15.7352 74.2843 15.3536C74.5594 14.972 74.6969 14.3996 74.6969 13.6365C74.6969 12.8556 74.5682 12.2699 74.3109 11.8794C74.0535 11.489 73.6631 11.2938 73.1395 11.2938C72.5982 11.2938 72.1944 11.489 71.9282 11.8794C71.662 12.261 71.5289 12.8378 71.5289 13.6099C71.5289 14.3819 71.662 14.9631 71.9282 15.3536C72.1944 15.7352 72.5982 15.926 73.1395 15.926Z" fill="black"/>
<path d="M63.3963 8.67136V23.7527H58.1917V8.67136H63.3963ZM60.814 2.60156C61.5594 2.60156 62.2072 2.75686 62.7574 3.06745C63.3164 3.37804 63.596 3.99478 63.596 4.91767C63.596 5.81394 63.3164 6.42181 62.7574 6.74127C62.2072 7.05186 61.5594 7.20716 60.814 7.20716C60.0508 7.20716 59.3986 7.05186 58.8573 6.74127C58.3248 6.42181 58.0586 5.81394 58.0586 4.91767C58.0586 3.99478 58.3248 3.37804 58.8573 3.06745C59.3986 2.75686 60.0508 2.60156 60.814 2.60156Z" fill="black"/>
<path d="M54.9701 13.6099C54.9701 15.8728 54.5486 17.7541 53.7055 19.2538C52.8625 20.7535 51.6734 21.8805 50.1382 22.6347C48.6119 23.3802 46.8149 23.7529 44.7473 23.7529H38.4512V4.29224H45.1865C47.2808 4.29224 49.0556 4.65163 50.5109 5.37042C51.9662 6.08922 53.071 7.14078 53.8253 8.52512C54.5885 9.90946 54.9701 11.6044 54.9701 13.6099ZM49.5126 13.7963C49.5126 12.616 49.3528 11.6399 49.0334 10.8679C48.7228 10.0869 48.2525 9.5057 47.6224 9.12412C46.9924 8.73366 46.1982 8.53843 45.2398 8.53843H43.709V19.4401H44.8804C46.4777 19.4401 47.649 18.9787 48.3945 18.0558C49.1399 17.124 49.5126 15.7042 49.5126 13.7963Z" fill="black"/>
</svg>
