<svg width="156" height="26" viewBox="0 0 156 26" fill="none" xmlns="http://www.w3.org/2000/svg">
<path d="M156 8.94019L153.048 19.8493H149.353L147.632 12.7721L145.853 19.8493H142.178L139.206 8.94019H142.549L144.094 16.7408L145.931 8.94019H149.47L151.327 16.7017L152.852 8.94019H156Z" fill="black"/>
<path d="M132.857 20.0056C131.788 20.0056 130.824 19.7775 129.964 19.3213C129.116 18.8652 128.445 18.2135 127.95 17.3663C127.468 16.5191 127.227 15.5286 127.227 14.3946C127.227 13.2738 127.474 12.2897 127.969 11.4425C128.465 10.5823 129.142 9.92413 130.003 9.46795C130.863 9.01178 131.827 8.78369 132.896 8.78369C133.965 8.78369 134.929 9.01178 135.79 9.46795C136.65 9.92413 137.328 10.5823 137.823 11.4425C138.318 12.2897 138.566 13.2738 138.566 14.3946C138.566 15.5155 138.312 16.5061 137.803 17.3663C137.308 18.2135 136.624 18.8652 135.751 19.3213C134.89 19.7775 133.926 20.0056 132.857 20.0056ZM132.857 17.1121C133.496 17.1121 134.037 16.8775 134.48 16.4083C134.936 15.9391 135.164 15.2679 135.164 14.3946C135.164 13.5214 134.942 12.8502 134.499 12.381C134.069 11.9117 133.535 11.6771 132.896 11.6771C132.244 11.6771 131.704 11.9117 131.273 12.381C130.843 12.8371 130.628 13.5084 130.628 14.3946C130.628 15.2679 130.837 15.9391 131.254 16.4083C131.684 16.8775 132.218 17.1121 132.857 17.1121Z" fill="black"/>
<path d="M125.469 5.38208V19.8493H122.126V5.38208H125.469Z" fill="black"/>
<path d="M120.369 6.125V8.8034H114.778V11.6969H118.961V14.297H114.778V19.8493H111.435V6.125H120.369Z" fill="black"/>
<path d="M102.31 8.78369C103.079 8.78369 103.751 8.94009 104.324 9.2529C104.911 9.56571 105.36 9.97626 105.673 10.4846V8.94009H109.016V19.8296C109.016 20.8332 108.814 21.7391 108.41 22.5471C108.019 23.3683 107.413 24.0199 106.592 24.5022C105.784 24.9844 104.774 25.2255 103.562 25.2255C101.945 25.2255 100.636 24.841 99.632 24.0721C98.6284 23.3161 98.0549 22.2865 97.9115 20.9831H101.216C101.32 21.4002 101.567 21.726 101.958 21.9606C102.349 22.2083 102.832 22.3321 103.405 22.3321C104.096 22.3321 104.643 22.1301 105.047 21.726C105.464 21.335 105.673 20.7029 105.673 19.8296V18.2852C105.347 18.7935 104.898 19.2105 104.324 19.5364C103.751 19.8492 103.079 20.0056 102.31 20.0056C101.411 20.0056 100.596 19.7775 99.8666 19.3213C99.1367 18.8521 98.5567 18.1939 98.1266 17.3467C97.7095 16.4865 97.501 15.496 97.501 14.3751C97.501 13.2542 97.7095 12.2702 98.1266 11.423C98.5567 10.5758 99.1367 9.92413 99.8666 9.46795C100.596 9.01178 101.411 8.78369 102.31 8.78369ZM105.673 14.3946C105.673 13.5605 105.438 12.9023 104.969 12.4201C104.513 11.9378 103.953 11.6967 103.288 11.6967C102.623 11.6967 102.056 11.9378 101.587 12.4201C101.131 12.8893 100.903 13.5409 100.903 14.3751C100.903 15.2092 101.131 15.874 101.587 16.3692C102.056 16.8515 102.623 17.0926 103.288 17.0926C103.953 17.0926 104.513 16.8515 104.969 16.3692C105.438 15.887 105.673 15.2288 105.673 14.3946Z" fill="black"/>
<path d="M91.6383 8.823C92.9156 8.823 93.9322 9.24007 94.6882 10.0742C95.4572 10.8953 95.8417 12.0293 95.8417 13.476V19.8494H92.5181V13.9256C92.5181 13.1958 92.3291 12.6288 91.9511 12.2248C91.5732 11.8207 91.0649 11.6187 90.4262 11.6187C89.7876 11.6187 89.2793 11.8207 88.9013 12.2248C88.5233 12.6288 88.3343 13.1958 88.3343 13.9256V19.8494H84.9912V8.9403H88.3343V10.387C88.6732 9.90478 89.1294 9.52681 89.7028 9.2531C90.2763 8.96637 90.9215 8.823 91.6383 8.823Z" fill="black"/>
<path d="M80.9072 7.80627C80.3207 7.80627 79.8385 7.63683 79.4605 7.29796C79.0956 6.94605 78.9131 6.51595 78.9131 6.00764C78.9131 5.48629 79.0956 5.05619 79.4605 4.71731C79.8385 4.36541 80.3207 4.18945 80.9072 4.18945C81.4807 4.18945 81.9499 4.36541 82.3148 4.71731C82.6928 5.05619 82.8818 5.48629 82.8818 6.00764C82.8818 6.51595 82.6928 6.94605 82.3148 7.29796C81.9499 7.63683 81.4807 7.80627 80.9072 7.80627ZM82.569 8.94019V19.8493H79.2259V8.94019H82.569Z" fill="black"/>
<path d="M65.292 14.3752C65.292 13.2544 65.5005 12.2703 65.9176 11.4231C66.3477 10.576 66.9277 9.92428 67.6576 9.4681C68.3875 9.01193 69.2021 8.78384 70.1014 8.78384C70.8182 8.78384 71.4699 8.93373 72.0564 9.2335C72.656 9.53327 73.1252 9.93731 73.464 10.4456V5.38208H76.8072V19.8493H73.464V18.2853C73.1512 18.8067 72.7016 19.2237 72.1151 19.5365C71.5416 19.8493 70.8704 20.0057 70.1014 20.0057C69.2021 20.0057 68.3875 19.7777 67.6576 19.3215C66.9277 18.8523 66.3477 18.1941 65.9176 17.3469C65.5005 16.4867 65.292 15.4961 65.292 14.3752ZM73.464 14.3948C73.464 13.5606 73.2294 12.9024 72.7602 12.4202C72.3041 11.938 71.7436 11.6968 71.0789 11.6968C70.4142 11.6968 69.8472 11.938 69.378 12.4202C68.9218 12.8894 68.6938 13.5411 68.6938 14.3752C68.6938 15.2094 68.9218 15.8741 69.378 16.3694C69.8472 16.8516 70.4142 17.0927 71.0789 17.0927C71.7436 17.0927 72.3041 16.8516 72.7602 16.3694C73.2294 15.8871 73.464 15.2289 73.464 14.3948Z" fill="black"/>
<path d="M59.4303 8.823C60.7076 8.823 61.7242 9.24007 62.4802 10.0742C63.2492 10.8953 63.6336 12.0293 63.6336 13.476V19.8494H60.3101V13.9256C60.3101 13.1958 60.1211 12.6288 59.7431 12.2248C59.3652 11.8207 58.8568 11.6187 58.2182 11.6187C57.5796 11.6187 57.0712 11.8207 56.6933 12.2248C56.3153 12.6288 56.1263 13.1958 56.1263 13.9256V19.8494H52.7832V8.9403H56.1263V10.387C56.4652 9.90478 56.9214 9.52681 57.4948 9.2531C58.0683 8.96637 58.7135 8.823 59.4303 8.823Z" fill="black"/>
<path d="M38.8496 14.3751C38.8496 13.2542 39.0581 12.2702 39.4752 11.423C39.9053 10.5758 40.4853 9.92413 41.2152 9.46795C41.9451 9.01178 42.7597 8.78369 43.659 8.78369C44.428 8.78369 45.0992 8.94009 45.6727 9.2529C46.2592 9.56571 46.7089 9.97626 47.0217 10.4846V8.94009H50.3648V19.8492H47.0217V18.3047C46.6958 18.813 46.2396 19.2236 45.6531 19.5364C45.0797 19.8492 44.4084 20.0056 43.6394 20.0056C42.7532 20.0056 41.9451 19.7775 41.2152 19.3213C40.4853 18.8521 39.9053 18.1939 39.4752 17.3467C39.0581 16.4865 38.8496 15.496 38.8496 14.3751ZM47.0217 14.3946C47.0217 13.5605 46.7871 12.9023 46.3178 12.4201C45.8617 11.9378 45.3012 11.6967 44.6365 11.6967C43.9718 11.6967 43.4048 11.9378 42.9356 12.4201C42.4795 12.8893 42.2514 13.5409 42.2514 14.3751C42.2514 15.2092 42.4795 15.874 42.9356 16.3692C43.4048 16.8515 43.9718 17.0926 44.6365 17.0926C45.3012 17.0926 45.8617 16.8515 46.3178 16.3692C46.7871 15.887 47.0217 15.2288 47.0217 14.3946Z" fill="black"/>
<path d="M33.5404 17.2687H37.9197V19.8493H30.1973V6.125H33.5404V17.2687Z" fill="black"/>
<path d="M2.4322 11.5022C2.66433 9.53013 3.46046 7.66985 4.72262 6.15028C4.86227 5.97966 5.03554 5.84045 5.23133 5.74155C5.42712 5.64266 5.64114 5.58625 5.85968 5.57594C6.07822 5.56564 6.29647 5.60165 6.50049 5.6817C6.7045 5.76174 6.88978 5.88404 7.04448 6.04077L9.76331 8.85411C10.0251 9.11879 10.1856 9.46914 10.216 9.84261C10.2464 10.2161 10.1448 10.5884 9.92936 10.8929C9.76615 11.1275 9.64323 11.3884 9.5658 11.6645C9.54121 11.7459 9.49148 11.8172 9.42392 11.868C9.35636 11.9187 9.27453 11.9461 9.19046 11.9462H2.82327C2.76779 11.9463 2.71292 11.9345 2.66226 11.9115C2.61161 11.8886 2.56632 11.8551 2.52938 11.8131C2.49244 11.7712 2.46468 11.7218 2.44793 11.6682C2.43118 11.6146 2.42582 11.558 2.4322 11.5022ZM13.5001 2.39518C13.2829 2.376 13.0642 2.40277 12.8578 2.4738C12.6515 2.54484 12.4619 2.65858 12.3012 2.8078C12.1405 2.95703 12.0122 3.13847 11.9245 3.34062C11.8367 3.54277 11.7914 3.7612 11.7914 3.98204V8.03082C11.7887 8.4065 11.9183 8.77086 12.1569 9.05843C12.3955 9.346 12.7275 9.53794 13.0933 9.59975C13.782 9.71487 14.4134 10.0589 14.8878 10.5777C15.3623 11.0964 15.6529 11.7604 15.7138 12.4649C15.7747 13.1695 15.6025 13.8745 15.2243 14.4689C14.8461 15.0634 14.2834 15.5134 13.6249 15.7481C13.5482 15.7766 13.4821 15.8283 13.4353 15.8961C13.3886 15.9639 13.3635 16.0446 13.3635 16.1274V22.6211C13.3631 22.6775 13.3746 22.7333 13.3971 22.7849C13.4196 22.8365 13.4527 22.8826 13.4941 22.9202C13.5356 22.9579 13.5844 22.9862 13.6374 23.0033C13.6905 23.0204 13.7465 23.0258 13.8018 23.0193C16.2542 22.7126 18.5147 21.5188 20.1674 19.6576C21.8201 17.7964 22.7537 15.3931 22.7964 12.8899C22.8701 7.48527 18.7864 2.87502 13.5001 2.39518ZM11.5212 15.7451C11.0818 15.5863 10.6828 15.3304 10.353 14.996C10.0233 14.6617 9.77121 14.2571 9.61493 13.8118C9.58814 13.7328 9.53785 13.6642 9.47099 13.6153C9.40413 13.5665 9.32398 13.5398 9.24155 13.539H2.82229C2.76673 13.5387 2.71174 13.5502 2.66092 13.573C2.61011 13.5957 2.56463 13.6292 2.52749 13.671C2.49035 13.7129 2.46239 13.7622 2.44546 13.8159C2.42853 13.8695 2.423 13.9261 2.42925 13.982C2.70449 16.2831 3.73318 18.4242 5.3509 20.0632C6.96861 21.7022 9.08196 22.7445 11.3531 23.0233C11.4083 23.0297 11.4642 23.0241 11.5172 23.0069C11.5701 22.9898 11.6188 22.9614 11.6601 22.9238C11.7014 22.8862 11.7344 22.8401 11.7569 22.7886C11.7793 22.7371 11.7907 22.6814 11.7904 22.6251V16.1274C11.7905 16.0431 11.7647 15.961 11.7164 15.8924C11.6681 15.8239 11.5998 15.7723 11.5212 15.7451Z" fill="black"/>
</svg>
