<svg width="156" height="36" viewBox="0 0 156 36" fill="none" xmlns="http://www.w3.org/2000/svg">
<path d="M17.5762 35.4369C17.5017 35.4369 17.4252 35.4075 17.3684 35.3506L0.0862618 18.0999C0.0313606 18.045 0 17.9704 0 17.892C0 17.8136 0.0313606 17.7391 0.0862618 17.6842L17.3684 0.433437C17.4841 0.319714 17.6684 0.319714 17.7841 0.433437L35.0662 17.6842C35.1211 17.7391 35.1524 17.8136 35.1524 17.892C35.1524 17.9704 35.1211 18.045 35.0662 18.0999L17.7841 35.3506C17.7272 35.4075 17.6507 35.4369 17.5762 35.4369ZM0.709793 17.892L17.5743 34.7271L34.4387 17.892L17.5743 1.05696L0.709793 17.892Z" fill="black"/>
<path d="M30.9663 31.5526C30.8918 31.5526 30.8154 31.5232 30.7585 31.4664L26.2645 26.9801C26.1488 26.8664 26.1488 26.6782 26.2645 26.5645C26.3782 26.4488 26.5644 26.4488 26.6801 26.5645L30.9663 30.8428L43.9407 17.892L30.9663 4.94123L17.7842 18.0999C17.6685 18.2156 17.4822 18.2136 17.3685 18.0999C17.2548 17.9842 17.2548 17.7979 17.3685 17.6842L30.7585 4.31771C30.8742 4.20399 31.0585 4.20399 31.1742 4.31771L44.5642 17.6842C44.6191 17.7391 44.6505 17.8136 44.6505 17.892C44.6505 17.9705 44.6191 18.045 44.5642 18.0999L31.1742 31.4664C31.1173 31.5232 31.0408 31.5526 30.9663 31.5526Z" fill="black"/>
<path d="M154.745 13.5715H156L150.353 26.6223H149.248L146.362 19.8209L143.476 26.6223H142.372L136.725 13.5715H137.954L142.949 25.242L145.634 18.8671L143.451 13.5966H144.58L146.362 17.8883L148.119 13.5966H149.273L147.09 18.8671L149.775 25.242L154.745 13.5715Z" fill="black"/>
<path d="M129.29 26.8734C128.37 26.8734 127.516 26.6977 126.73 26.3463C125.96 25.9949 125.291 25.5097 124.722 24.8906C124.153 24.2548 123.71 23.527 123.392 22.7071C123.074 21.8873 122.915 21.0256 122.915 20.1221C122.915 19.2018 123.074 18.3401 123.392 17.537C123.71 16.7172 124.153 15.9977 124.722 15.3786C125.308 14.7428 125.985 14.2492 126.755 13.8979C127.541 13.5298 128.386 13.3457 129.29 13.3457C130.193 13.3457 131.03 13.5298 131.8 13.8979C132.569 14.2492 133.247 14.7428 133.833 15.3786C134.418 15.9977 134.87 16.7172 135.188 17.537C135.506 18.3401 135.665 19.2018 135.665 20.1221C135.665 21.0256 135.506 21.8873 135.188 22.7071C134.87 23.527 134.418 24.2548 133.833 24.8906C133.264 25.5097 132.586 25.9949 131.8 26.3463C131.03 26.6977 130.193 26.8734 129.29 26.8734ZM124.17 20.1723C124.17 21.1929 124.396 22.1299 124.848 22.9832C125.316 23.8198 125.935 24.4891 126.705 24.991C127.474 25.493 128.328 25.744 129.265 25.744C130.202 25.744 131.055 25.493 131.825 24.991C132.611 24.4723 133.23 23.7863 133.682 22.933C134.15 22.063 134.385 21.1176 134.385 20.097C134.385 19.0763 134.15 18.1394 133.682 17.286C133.23 16.4327 132.611 15.7551 131.825 15.2531C131.055 14.7344 130.21 14.4751 129.29 14.4751C128.353 14.4751 127.5 14.7344 126.73 15.2531C125.96 15.7718 125.341 16.4578 124.873 17.3111C124.404 18.1645 124.17 19.1182 124.17 20.1723Z" fill="black"/>
<path d="M117.424 8.30103H118.704V24.0373C118.704 24.6396 118.829 25.0579 119.08 25.2922C119.331 25.5097 119.658 25.6184 120.059 25.6184C120.327 25.6184 120.603 25.5933 120.887 25.5431C121.172 25.4929 121.423 25.426 121.64 25.3424L121.891 26.3714C121.607 26.4718 121.255 26.5638 120.837 26.6474C120.419 26.7311 120.059 26.7729 119.758 26.7729C119.055 26.7729 118.486 26.5638 118.051 26.1455C117.633 25.7105 117.424 25.1332 117.424 24.4137V8.30103Z" fill="black"/>
<path d="M102.798 26.6223V8.80298H114.393V9.95747H104.078V17.035H112.837V18.1393H104.078V26.6223H102.798Z" fill="black"/>
<path d="M93.215 26.8733C92.2279 26.8733 91.3244 26.6976 90.5045 26.3462C89.7014 25.9781 88.9986 25.4845 88.3963 24.8654C87.8107 24.2296 87.3506 23.5018 87.0159 22.6819C86.698 21.8621 86.5391 20.992 86.5391 20.0718C86.5391 18.8336 86.8235 17.7042 87.3924 16.6836C87.9613 15.663 88.7477 14.8431 89.7516 14.224C90.7722 13.6049 91.9351 13.2954 93.2401 13.2954C94.562 13.2954 95.7081 13.6133 96.6785 14.2491C97.6657 14.8682 98.427 15.6881 98.9624 16.7087C99.5146 17.7126 99.7906 18.8002 99.7906 19.9714C99.7906 20.1387 99.7823 20.306 99.7655 20.4734C99.7655 20.6239 99.7572 20.7411 99.7404 20.8247H88.8731C88.9401 21.678 89.1743 22.4393 89.5759 23.1086C89.9942 23.7611 90.5296 24.2798 91.1821 24.6647C91.8347 25.0328 92.5374 25.2168 93.2903 25.2168C94.0935 25.2168 94.8464 25.016 95.5491 24.6145C96.2686 24.2129 96.7622 23.6859 97.0299 23.0333L98.9373 23.5604C98.6529 24.1962 98.2262 24.7651 97.6573 25.267C97.1052 25.769 96.4443 26.1622 95.6746 26.4466C94.9217 26.731 94.1018 26.8733 93.215 26.8733ZM88.7979 19.2938H97.7326C97.6657 18.4404 97.4231 17.6875 97.0048 17.035C96.5865 16.3824 96.0511 15.8721 95.3985 15.504C94.746 15.1359 94.0265 14.9519 93.2401 14.9519C92.4705 14.9519 91.7594 15.1359 91.1068 15.504C90.4543 15.8721 89.9189 16.3824 89.5006 17.035C89.099 17.6875 88.8648 18.4404 88.7979 19.2938Z" fill="black"/>
<path d="M83.9835 26.6223H81.7749V19.2938C81.7749 17.905 81.5574 16.8927 81.1224 16.2569C80.7041 15.6044 80.0599 15.2781 79.1899 15.2781C78.5875 15.2781 77.9852 15.4287 77.3828 15.7299C76.7972 16.0311 76.2702 16.441 75.8017 16.9597C75.3499 17.4616 75.0236 18.0472 74.8229 18.7165V26.6223H72.6143V13.5213H74.6221V16.3322C74.9734 15.7132 75.4252 15.1777 75.9774 14.726C76.5295 14.2742 77.1569 13.9229 77.8597 13.6719C78.5624 13.4209 79.2986 13.2954 80.0683 13.2954C80.8212 13.2954 81.4486 13.4376 81.9506 13.7221C82.4693 13.9898 82.8709 14.3746 83.1553 14.8766C83.4565 15.3618 83.6656 15.939 83.7827 16.6083C83.9166 17.2776 83.9835 18.0054 83.9835 18.7918V26.6223Z" fill="black"/>
<path d="M66.8301 26.6223V13.5213H69.0387V26.6223H66.8301ZM66.8301 11.0618V8.30103H69.0387V11.0618H66.8301Z" fill="black"/>
<path d="M52.5244 26.6223V8.80298H54.7832V24.6145H64.7219V26.6223H52.5244Z" fill="black"/>
</svg>
