<svg width="156" height="23" viewBox="0 0 156 23" fill="none" xmlns="http://www.w3.org/2000/svg">
<path d="M153.209 6.99341H156L150.152 20.8945H147.654L145.155 14.6217L142.657 20.8945H140.158L134.284 6.99341H137.075L141.54 18.0505L143.507 12.9206L141.115 7.01999H143.587L145.155 11.3525L146.697 7.01999H149.169L146.803 12.9206L148.77 18.0505L153.209 6.99341Z" fill="black"/>
<path d="M126.603 21.1603C125.504 21.1603 124.521 20.9742 123.653 20.6021C122.784 20.2123 122.031 19.6807 121.393 19.0073C120.773 18.334 120.295 17.572 119.958 16.7215C119.621 15.8532 119.453 14.9318 119.453 13.9572C119.453 12.9826 119.621 12.0612 119.958 11.1929C120.295 10.3247 120.773 9.56272 121.393 8.90709C122.031 8.23374 122.784 7.71101 123.653 7.3389C124.539 6.94907 125.522 6.75415 126.603 6.75415C127.684 6.75415 128.659 6.94907 129.527 7.3389C130.413 7.71101 131.166 8.23374 131.786 8.90709C132.424 9.56272 132.911 10.3247 133.248 11.1929C133.585 12.0612 133.753 12.9826 133.753 13.9572C133.753 14.9318 133.585 15.8532 133.248 16.7215C132.911 17.572 132.424 18.334 131.786 19.0073C131.166 19.6807 130.413 20.2123 129.527 20.6021C128.659 20.9742 127.684 21.1603 126.603 21.1603ZM122.457 13.9838C122.457 14.8698 122.643 15.6672 123.015 16.3759C123.387 17.0847 123.883 17.6429 124.503 18.0505C125.123 18.458 125.823 18.6618 126.603 18.6618C127.365 18.6618 128.056 18.458 128.676 18.0505C129.314 17.6252 129.819 17.0581 130.191 16.3494C130.563 15.6229 130.749 14.8255 130.749 13.9572C130.749 13.0712 130.563 12.2738 130.191 11.565C129.819 10.8563 129.314 10.2981 128.676 9.89053C128.056 9.46526 127.365 9.25263 126.603 9.25263C125.823 9.25263 125.123 9.46526 124.503 9.89053C123.883 10.3158 123.387 10.8828 123.015 11.5916C122.643 12.2827 122.457 13.0801 122.457 13.9838Z" fill="black"/>
<path d="M112.39 1.49146H115.313V16.881C115.313 17.5898 115.42 18.0416 115.632 18.2366C115.845 18.4315 116.111 18.5289 116.43 18.5289C116.784 18.5289 117.112 18.4935 117.413 18.4226C117.732 18.3517 118.007 18.2631 118.237 18.1568L118.662 20.4692C118.237 20.6464 117.732 20.7971 117.147 20.9211C116.563 21.0451 116.04 21.1072 115.579 21.1072C114.587 21.1072 113.807 20.8325 113.24 20.2832C112.673 19.7162 112.39 18.9365 112.39 17.9442V1.49146Z" fill="black"/>
<path d="M97.3428 20.8944V2.02295H109.915V4.65432H100.32V10.2892H108.347V12.7611H100.32V20.8944H97.3428Z" fill="black"/>
<path d="M79.1953 13.9573C79.1953 12.6283 79.4611 11.4233 79.9927 10.3424C80.542 9.24382 81.2862 8.37555 82.2254 7.73765C83.1645 7.08202 84.2454 6.7542 85.4681 6.7542C86.5313 6.7542 87.4881 7.02886 88.3387 7.57817C89.2069 8.12748 89.8803 8.80969 90.3587 9.62479V1.49146H93.2825V17.5987C93.2825 17.9353 93.3445 18.1745 93.4685 18.3163C93.5926 18.4581 93.7963 18.5378 94.0799 18.5555V20.8945C93.5305 20.9831 93.1053 21.0274 92.804 21.0274C92.2547 21.0274 91.7852 20.8679 91.3953 20.549C91.0232 20.23 90.8283 19.8491 90.8106 19.4061L90.784 18.3695C90.2524 19.2554 89.5347 19.9465 88.631 20.4427C87.7273 20.9211 86.7882 21.1603 85.8136 21.1603C84.8568 21.1603 83.9708 20.9743 83.1557 20.6021C82.3583 20.23 81.6583 19.7073 81.0559 19.0339C80.4711 18.3606 80.0104 17.5898 79.6737 16.7215C79.3548 15.8533 79.1953 14.9318 79.1953 13.9573ZM90.3587 15.8976V12.2562C90.1638 11.6891 89.8448 11.1841 89.4019 10.7411C88.9766 10.2804 88.4893 9.91717 87.94 9.65137C87.4084 9.38558 86.8768 9.25268 86.3452 9.25268C85.725 9.25268 85.158 9.38558 84.6441 9.65137C84.148 9.91717 83.7138 10.2716 83.3417 10.7146C82.9873 11.1575 82.7127 11.6626 82.5178 12.2296C82.3228 12.7966 82.2254 13.3902 82.2254 14.0104C82.2254 14.6483 82.3317 15.2508 82.5443 15.8178C82.757 16.3671 83.0582 16.8633 83.448 17.3063C83.8556 17.7316 84.3163 18.0682 84.8302 18.3163C85.3618 18.5467 85.9377 18.6618 86.5578 18.6618C86.9477 18.6618 87.3375 18.591 87.7273 18.4492C88.1349 18.3074 88.5159 18.1125 88.8703 17.8644C89.2424 17.6164 89.5525 17.324 89.8005 16.9873C90.0663 16.6507 90.2524 16.2874 90.3587 15.8976Z" fill="black"/>
<path d="M64.0596 16.8278C64.0596 15.9418 64.3076 15.171 64.8038 14.5154C65.3177 13.842 66.0176 13.3282 66.9036 12.9738C67.7896 12.6016 68.8173 12.4156 69.9868 12.4156C70.607 12.4156 71.236 12.4599 71.874 12.5485C72.5296 12.6371 73.1055 12.7788 73.6016 12.9738V12.0966C73.6016 11.1221 73.3092 10.3601 72.7245 9.8108C72.1397 9.26149 71.2981 8.98683 70.1994 8.98683C69.4198 8.98683 68.6844 9.12859 67.9933 9.4121C67.3023 9.6779 66.5669 10.0589 65.7872 10.555L64.8038 8.58814C65.7252 7.96795 66.6466 7.50724 67.5681 7.206C68.5072 6.90477 69.4907 6.75415 70.5184 6.75415C72.379 6.75415 73.8408 7.2503 74.904 8.2426C75.9849 9.21719 76.5254 10.6082 76.5254 12.4156V17.5986C76.5254 17.9353 76.5785 18.1745 76.6848 18.3162C76.8089 18.458 77.0127 18.5377 77.2962 18.5555V20.8945C77.0304 20.9476 76.7912 20.9831 76.5785 21.0008C76.3659 21.0185 76.1887 21.0274 76.0469 21.0274C75.4268 21.0274 74.9572 20.8767 74.6382 20.5755C74.3193 20.2743 74.1332 19.9199 74.0801 19.5123L74.0003 18.7149C73.3978 19.4946 72.627 20.0971 71.6879 20.5223C70.7488 20.9476 69.8008 21.1603 68.8439 21.1603C67.9225 21.1603 67.0985 20.9742 66.372 20.6021C65.6455 20.2123 65.0785 19.6895 64.6709 19.0339C64.2633 18.3783 64.0596 17.6429 64.0596 16.8278ZM72.9106 17.6783C73.1232 17.448 73.2915 17.2176 73.4156 16.9873C73.5396 16.7569 73.6016 16.5531 73.6016 16.3759V14.7812C73.1055 14.5863 72.5827 14.4445 72.0334 14.3559C71.4841 14.2496 70.9437 14.1964 70.4121 14.1964C69.3489 14.1964 68.4806 14.4091 67.8073 14.8343C67.1517 15.2596 66.8238 15.8444 66.8238 16.5886C66.8238 16.9961 66.9302 17.386 67.1428 17.7581C67.3732 18.1302 67.6921 18.4314 68.0997 18.6618C68.5249 18.8921 69.0477 19.0073 69.6679 19.0073C70.3058 19.0073 70.9171 18.8833 71.5018 18.6352C72.0866 18.3871 72.5562 18.0682 72.9106 17.6783Z" fill="black"/>
<path d="M55.5615 21.1603C54.4806 21.1603 53.4971 20.9742 52.6111 20.6021C51.7429 20.2123 50.9898 19.6895 50.3519 19.0339C49.714 18.3605 49.2178 17.5986 48.8634 16.7481C48.5267 15.8798 48.3584 14.9584 48.3584 13.9838C48.3584 12.6725 48.6596 11.4764 49.2621 10.3955C49.8646 9.29693 50.7063 8.4198 51.7872 7.76417C52.8681 7.09082 54.135 6.75415 55.588 6.75415C57.041 6.75415 58.2903 7.09082 59.3357 7.76417C60.3989 8.4198 61.2229 9.28806 61.8076 10.369C62.3924 11.4499 62.6848 12.6105 62.6848 13.8509C62.6848 14.0635 62.6759 14.2673 62.6582 14.4622C62.6405 14.6394 62.6227 14.79 62.605 14.9141H51.4682C51.5214 15.7292 51.7429 16.4468 52.1327 17.067C52.5402 17.6695 53.0541 18.1479 53.6743 18.5023C54.2945 18.839 54.959 19.0073 55.6678 19.0073C56.4474 19.0073 57.1828 18.8124 57.8739 18.4226C58.5827 18.0327 59.0611 17.5189 59.3092 16.881L61.8076 17.5986C61.5064 18.2719 61.0457 18.8833 60.4255 19.4326C59.823 19.9642 59.1054 20.3895 58.2726 20.7084C57.4397 21.0096 56.536 21.1603 55.5615 21.1603ZM51.3885 12.9738H59.7876C59.7344 12.1764 59.5041 11.4764 59.0965 10.874C58.7067 10.2538 58.2017 9.77536 57.5815 9.43868C56.979 9.08429 56.3057 8.90709 55.5615 8.90709C54.8349 8.90709 54.1616 9.08429 53.5414 9.43868C52.9389 9.77536 52.4428 10.2538 52.053 10.874C51.6631 11.4764 51.4416 12.1764 51.3885 12.9738Z" fill="black"/>
<path d="M32.5029 20.8944V2.02295H40.716C41.5666 2.02295 42.3462 2.20015 43.055 2.55454C43.7638 2.90893 44.3751 3.37851 44.889 3.96326C45.4206 4.54801 45.8281 5.20363 46.1117 5.93014C46.4129 6.65665 46.5635 7.40088 46.5635 8.16282C46.5635 8.99565 46.4129 9.79303 46.1117 10.555C45.8104 11.3169 45.3763 11.9726 44.8093 12.5219C44.2599 13.0712 43.6132 13.4699 42.8689 13.7179L47.3077 20.8944H43.9587L39.8655 14.3293H35.4798V20.8944H32.5029ZM35.4798 11.6979H40.6894C41.2387 11.6979 41.726 11.5384 42.1513 11.2195C42.5766 10.9005 42.9132 10.4752 43.1613 9.94365C43.4094 9.39434 43.5334 8.80073 43.5334 8.16282C43.5334 7.50719 43.3917 6.92244 43.1082 6.40857C42.8246 5.87698 42.4525 5.45171 41.9918 5.13275C41.5488 4.8138 41.0615 4.65432 40.5299 4.65432H35.4798V11.6979Z" fill="black"/>
<g clip-path="url(#clip0_12216_50)">
<path d="M4.0683 0.485352C1.82226 0.485352 0 2.30761 0 4.55365V18.1146C0 20.3607 1.82226 22.1829 4.0683 22.1829H16.2732H17.6293C18.3794 22.1829 18.9854 21.5769 18.9854 20.8268C18.9854 20.0767 18.3794 19.4707 17.6293 19.4707V16.7585C18.3794 16.7585 18.9854 16.1525 18.9854 15.4024V1.84145C18.9854 1.09136 18.3794 0.485352 17.6293 0.485352H16.2732H4.0683ZM4.0683 16.7585H14.9171V19.4707H4.0683C3.3182 19.4707 2.7122 18.8647 2.7122 18.1146C2.7122 17.3645 3.3182 16.7585 4.0683 16.7585ZM5.42439 6.5878C5.42439 6.21487 5.72952 5.90975 6.10244 5.90975H14.239C14.612 5.90975 14.9171 6.21487 14.9171 6.5878C14.9171 6.96072 14.612 7.26585 14.239 7.26585H6.10244C5.72952 7.26585 5.42439 6.96072 5.42439 6.5878ZM6.10244 8.62194H14.239C14.612 8.62194 14.9171 8.92707 14.9171 9.29999C14.9171 9.67292 14.612 9.97804 14.239 9.97804H6.10244C5.72952 9.97804 5.42439 9.67292 5.42439 9.29999C5.42439 8.92707 5.72952 8.62194 6.10244 8.62194Z" fill="black"/>
</g>
<defs>
<clipPath id="clip0_12216_50">
<rect width="18.9854" height="21.6976" fill="white" transform="translate(0 0.485352)"/>
</clipPath>
</defs>
</svg>
